<svg xmlns="http://www.w3.org/2000/svg" viewBox="0 0 120 150">
  <path d="M18 146c6-34 23-53 42-53s36 19 42 53z" fill="#7dc9ff" stroke="#5b3921" stroke-width="6" stroke-linejoin="round"/>
  <circle cx="60" cy="62" r="34" fill="#f4c18d"/>
  <path d="M28 65c-2-24 12-43 33-44 21-2 35 13 33 38-15-11-31-12-49-3-6 3-12 6-17 9z" fill="#2e5b91"/>
  <path d="M48 27c11-9 28-9 39 2" stroke="rgba(255,255,255,.22)" stroke-width="6" stroke-linecap="round"/>
  <circle cx="48" cy="65" r="4.5" fill="#5b3921"/>
  <circle cx="73" cy="65" r="4.5" fill="#5b3921"/>
  <path d="M48 82c7 6 18 6 25 0" fill="none" stroke="#7a4a2a" stroke-width="5" stroke-linecap="round"/>
  <path d="M38 114c12 6 32 6 44 0" fill="none" stroke="rgba(255,255,255,.35)" stroke-width="6" stroke-linecap="round"/>
</svg>
