<svg xmlns="http://www.w3.org/2000/svg" viewBox="0 0 290 145">
  <defs>
    <linearGradient id="body" x1="0" x2="1" y1="0" y2="1">
      <stop offset="0" stop-color="#ffa7d1"/>
      <stop offset="1" stop-color="#8f75ff"/>
    </linearGradient>
  </defs>
  <path fill="url(#body)" d="M15 72l28-36 32 14 31-35 29 35 42-25 29 33 67 14-67 15-29 33-42-25-29 35-31-35-32 14z"/>
  <path fill="#8f75ff" d="M219 72l58-43-16 43 16 43z"/>
  <path fill="#ffe7f5" opacity=".45" d="M78 91c39 20 91 17 126-8-37 38-102 42-151 7 7 1 15 1 25 1z"/>
  <circle cx="58" cy="60" r="8" fill="#173043"/>
  <circle cx="55" cy="57" r="3" fill="#fff"/>
</svg>
